<?xml version="1.0" standalone="no"?>
<!DOCTYPE svg PUBLIC "-//W3C//DTD SVG 20010904//EN"
 "http://www.w3.org/TR/2001/REC-SVG-20010904/DTD/svg10.dtd">
<svg version="1.0" xmlns="http://www.w3.org/2000/svg"
 width="512.000000pt" height="512.000000pt" viewBox="0 0 512.000000 512.000000"
 preserveAspectRatio="xMidYMid meet">
<metadata>
Created by potrace 1.14, written by Peter Selinger 2001-2017
</metadata>
<g transform="translate(0.000000,512.000000) scale(0.100000,-0.100000)"
fill="#000000" stroke="none">
<path d="M3458 4805 c-1 -1 -25 -6 -52 -9 -307 -41 -615 -192 -840 -411 -243
-237 -399 -547 -444 -885 -9 -69 -8 -340 1 -400 77 -483 372 -901 792 -1117
145 -75 315 -133 438 -149 23 -3 61 -10 85 -14 102 -18 325 -8 482 23 277 54
545 201 761 416 195 194 326 426 393 692 34 134 41 202 40 389 -1 231 -43 406
-150 626 -71 147 -156 265 -279 390 -238 242 -482 367 -855 439 -36 7 -365 16
-372 10z m-260 -901 c50 -10 100 -66 108 -120 24 -161 -189 -239 -272 -99 -43
75 -22 156 52 201 41 25 61 28 112 18z m949 -23 c98 -73 72 -227 -45 -262 -52
-15 -100 -5 -137 29 -88 79 -67 200 45 254 28 14 106 2 137 -21z m-1077 -586
c15 -8 63 -50 107 -93 121 -120 243 -172 416 -177 189 -6 346 60 469 195 30
33 72 67 93 76 79 33 168 -8 195 -90 23 -71 0 -123 -98 -223 -80 -82 -166
-142 -268 -189 -63 -30 -105 -43 -216 -71 -40 -9 -254 -12 -294 -3 -22 5 -50
11 -64 13 -52 10 -157 50 -220 84 -175 94 -329 254 -330 340 -1 105 120 184
210 138z"/>
<path d="M1300 3295 c-236 -35 -436 -113 -639 -248 -117 -79 -280 -233 -364
-346 -122 -163 -232 -404 -263 -579 -3 -14 -7 -28 -9 -32 -18 -28 -26 -382
-12 -485 86 -601 538 -1099 1132 -1249 134 -34 194 -41 365 -41 162 0 204 5
339 35 196 44 415 148 581 278 86 67 248 242 310 334 92 138 197 370 217 477
2 14 11 56 19 94 19 90 20 86 -23 103 -419 170 -754 478 -954 875 -70 141
-145 371 -164 509 -19 139 -20 151 -24 227 -1 33 -6 35 -89 49 -66 12 -343 10
-422 -1z m-183 -897 c119 -53 123 -218 6 -270 -80 -35 -157 -9 -195 65 -62
122 66 259 189 205z m915 -10 c45 -26 78 -80 78 -129 0 -51 -43 -114 -90 -133
-84 -33 -154 -8 -194 71 -36 71 -4 161 67 194 55 25 91 24 139 -3z m-357 -593
c179 -37 349 -128 472 -252 102 -102 127 -163 99 -238 -20 -51 -62 -83 -119
-91 -59 -8 -97 13 -171 93 -106 115 -251 182 -411 188 -208 8 -356 -54 -507
-213 -74 -78 -126 -90 -208 -47 -42 22 -74 91 -66 146 8 56 14 65 116 167 127
128 289 212 475 248 69 13 255 13 320 -1z"/>
</g>
</svg>
